/vscmnt/brussel_pixiu_data/_data_brussel/112/vsc11236/PredSimResults/SUBJ07mtu3D/weighted-trackIG/worker_03.mot
version=1
nRows=11
nColumns=50
inDegrees=yes
endheader
                time	         pelvis_tilt	         pelvis_list	     pelvis_rotation	           pelvis_tx	           pelvis_ty	           pelvis_tz	       hip_flexion_r	     hip_adduction_r	      hip_rotation_r	        knee_angle_r	       ankle_angle_r	         mtp_angle_r	       hip_flexion_l	     hip_adduction_l	      hip_rotation_l	        knee_angle_l	       ankle_angle_l	         mtp_angle_l	    lumbar_extension	      lumbar_bending	     lumbar_rotation	 ercspn_r/activation	 intobl_r/activation	 extobl_r/activation	    abd_r/activation	    add_r/activation	hamstrings_r/activation	bifemsh_r/activation	glut_max_r/activation	iliopsoas_r/activation	rect_fem_r/activation	  vasti_r/activation	gastroc_r/activation	 soleus_r/activation	tib_ant_r/activation	 ercspn_l/activation	 intobl_l/activation	 extobl_l/activation	    abd_l/activation	    add_l/activation	hamstrings_l/activation	bifemsh_l/activation	glut_max_l/activation	iliopsoas_l/activation	rect_fem_l/activation	  vasti_l/activation	gastroc_l/activation	 soleus_l/activation	tib_ant_l/activation	
          0.56718193	         -6.35740641	          3.89934063	        -10.39573064	          0.70330559	          0.84341816	          0.01511525	        -13.73981362	         -4.72258164	          5.47060241	         -5.41024860	          8.43141910	         27.83370691	         31.45173533	         -0.87245514	         -9.16787477	         -3.10077115	          7.32520022	          0.24874321	         -6.67989958	         -1.78662617	          3.44096972	          0.03346235	          0.01000007	          0.01000007	          0.03992080	          0.04388592	          0.02800879	          0.15688119	          0.03360702	          0.42560789	          0.01189099	          0.01134819	          0.31801542	          0.27671983	          0.02239547	          0.10229405	          0.19005879	          0.03079853	          0.01157969	          0.11938270	          0.09079059	          0.21938475	          0.01000005	          0.11296321	          0.01000065	          0.01000007	          0.03167748	          0.01228478	          0.27381419	
          0.57852556	         -6.43230507	          3.78093315	        -10.36045732	          0.71978104	          0.84148535	          0.01491651	        -13.87639591	         -4.63735556	          4.98801816	         -7.13020495	          7.72975891	         29.63169492	         31.76146405	         -0.73035057	         -8.49082946	         -5.21780929	          7.02955686	          0.25163245	         -6.49178947	         -2.25672704	          3.51181655	          0.08764031	          0.01000012	          0.01000070	          0.03357340	          0.08992443	          0.02355560	          0.13193716	          0.02826351	          0.44579387	          0.01000141	          0.01086819	          0.26745154	          0.25852599	          0.01883459	          0.08602935	          0.16376716	          0.02590158	          0.01000004	          0.19683409	          0.07635518	          0.18450279	          0.06732223	          0.09500208	          0.01000100	          0.01000014	          0.02819777	          0.01413958	          0.27071078	
          0.58986920	         -6.48829945	          3.66242421	        -10.26380650	          0.73663364	          0.83972299	          0.01469219	        -13.85352160	         -4.53147937	          4.44674907	         -9.22834732	          6.92323108	         31.38024973	         31.86664676	         -0.61020455	         -7.75014818	         -7.32524173	          6.73113566	          0.23290882	         -6.28038598	         -2.74936496	          3.55675564	          0.11125831	          0.01000006	          0.01000056	          0.02823523	          0.09854900	          0.02360408	          0.11095922	          0.02376962	          0.42853901	          0.01000056	          0.01000089	          0.22492676	          0.23782800	          0.01583989	          0.07235081	          0.15676376	          0.02178324	          0.04951427	          0.18337941	          0.07364953	          0.15516718	          0.09905118	          0.07989676	          0.01000024	          0.01000006	          0.02371438	          0.01189145	          0.31454045	
          0.60121284	         -6.52856295	          3.54189161	        -10.10262887	          0.75363148	          0.83829834	          0.01437346	        -13.58411096	         -4.40563109	          3.85131888	        -11.81310782	          5.96997630	         33.00700018	         31.76766537	         -0.46672328	         -7.06268265	         -9.08864878	          6.33480015	          0.22161842	         -6.07155651	         -3.24995130	          3.57623541	          0.14885972	          0.01000009	          0.01000024	          0.02374583	          0.10515372	          0.01985164	          0.09331680	          0.01999026	          0.41041142	          0.01000083	          0.01000216	          0.18916341	          0.20001363	          0.01332136	          0.08800362	          0.13183839	          0.01831972	          0.11324826	          0.20566797	          0.06498186	          0.13049582	          0.13375738	          0.06719319	          0.01000029	          0.01000006	          0.01994383	          0.01000075	          0.34126115	
          0.61255648	         -6.55318838	          3.41881350	         -9.88234074	          0.77055500	          0.83735332	          0.01395205	        -13.01227196	         -4.26531716	          3.20315507	        -14.93999798	          4.85998468	         34.31323104	         31.55668885	         -0.29223134	         -6.45535925	        -10.67113750	          5.97393953	          0.20497109	         -5.88460278	         -3.75460986	          3.57137430	          0.18250595	          0.01000006	          0.01000023	          0.01997025	          0.11305965	          0.01669559	          0.07847956	          0.01681181	          0.37585835	          0.01000025	          0.01000009	          0.15908643	          0.16821148	          0.01120327	          0.09022432	          0.11087612	          0.01540691	          0.14758309	          0.21620777	          0.05464991	          0.10974711	          0.16514737	          0.05650949	          0.01000032	          0.01000147	          0.01677284	          0.01000228	          0.35689790	
          0.62390012	         -6.56141146	          3.29771723	         -9.60662031	          0.78725388	          0.83697463	          0.01343850	        -12.11696254	         -4.12639914	          2.49431904	        -18.60953030	          3.61610386	         34.99843949	         31.29965391	         -0.09619113	         -5.92647724	        -12.19347558	          5.74902039	          0.19242179	         -5.72896603	         -4.26515492	          3.54045934	          0.21122570	          0.01000008	          0.01000020	          0.01679498	          0.12592649	          0.01404135	          0.06600154	          0.01413874	          0.31609715	          0.01000020	          0.01000005	          0.13379169	          0.14146586	          0.01000003	          0.08258735	          0.09324685	          0.01295724	          0.16571514	          0.20445576	          0.04680107	          0.09229746	          0.16943706	          0.04752449	          0.01000029	          0.06841356	          0.01410606	          0.01000098	          0.36442561	
          0.63524376	         -6.55533040	          3.17182978	         -9.27643855	          0.80365046	          0.83725739	          0.01285501	        -10.91289773	         -3.99618019	          1.72516956	        -22.74384785	          2.16078985	         34.88854173	         30.96947497	          0.10914121	         -5.47126301	        -13.58090240	          5.62727799	          0.17883745	         -5.60753282	         -4.77052713	          3.48309035	          0.21686618	          0.01000008	          0.01000019	          0.01412458	          0.14055487	          0.01180923	          0.05550813	          0.01189068	          0.26583774	          0.01000016	          0.01000003	          0.11251882	          0.11897280	          0.01000004	          0.06945614	          0.07842063	          0.01089708	          0.16478408	          0.17194772	          0.04782387	          0.07762232	          0.15131706	          0.03996810	          0.01000028	          0.14976992	          0.01186337	          0.01000081	          0.36636935	
          0.64658740	         -6.53863021	          3.02695377	         -8.89082534	          0.81971668	          0.83824525	          0.01223190	         -9.44795735	         -3.87162926	          0.91408699	        -27.16758740	          0.29263402	         34.05034637	         30.50480170	          0.31227213	         -5.05965113	        -14.72030067	          5.63987189	          0.16740938	         -5.52139832	         -5.25428442	          3.39754474	          0.21031625	          0.01000004	          0.01000028	          0.01187878	          0.15148489	          0.01000036	          0.06116237	          0.01000008	          0.22356955	          0.01000014	          0.01000001	          0.09462833	          0.10005613	          0.01000003	          0.05841266	          0.06595176	          0.01000013	          0.16408932	          0.14460809	          0.04732288	          0.06528053	          0.12725838	          0.03361319	          0.01000027	          0.20267364	          0.01000032	          0.01000041	          0.35699200	
          0.65793103	         -6.51412370	          2.85142494	         -8.45016601	          0.83544443	          0.83989769	          0.01159945	         -7.78152066	         -3.74707514	          0.09216722	        -31.69973456	         -2.03760937	         32.43839588	         29.87207943	          0.50309690	         -4.64545885	        -15.55300603	          5.79783183	          0.15971044	         -5.47144346	         -5.70476225	          3.28184312	          0.20966227	          0.01387426	          0.01000048	          0.01000001	          0.13948010	          0.01189264	          0.05143890	          0.01000003	          0.18802201	          0.01000012	          0.01000002	          0.07958243	          0.08414721	          0.02864858	          0.04912507	          0.05546545	          0.01000032	          0.16800551	          0.12161543	          0.04631716	          0.05490110	          0.10702440	          0.02826870	          0.01000020	          0.21306401	          0.01000472	          0.01000170	          0.33675795	
          0.66927467	         -6.48288485	          2.64718891	         -7.96382135	          0.85081654	          0.84208428	          0.01097814	         -5.97561568	         -3.62237107	         -0.70213522	        -36.22558704	         -4.41844847	         29.63135611	         29.09208695	          0.67726243	         -4.19625825	        -16.11402786	          6.09711100	          0.15944508	         -5.45763861	         -6.12023058	          3.14039094	          0.23320015	          0.05561532	          0.03922169	          0.01000004	          0.11730279	          0.01000185	          0.04326136	          0.01000005	          0.15812654	          0.01000042	          0.01000003	          0.06692883	          0.07076780	          0.14438366	          0.04131421	          0.04664646	          0.01000021	          0.16529856	          0.10227859	          0.04467505	          0.04617196	          0.09000812	          0.02377399	          0.01000020	          0.22775552	          0.01000033	          0.01000033	          0.31295397	
          0.68061831	         -6.44524880	          2.41711805	         -7.43797130	          0.86580374	          0.84461994	          0.01036223	         -4.11346935	         -3.46569775	         -1.43369725	        -40.64243606	         -5.73061630	         25.76895845	         28.19487197	          0.83168019	         -3.69859403	        -16.43788542	          6.45904274	          0.17141036	         -5.48326746	         -6.48816224	          2.97377478	          0.24137753	          0.05860504	          0.06064274	          0.01000004	          0.09865168	          0.01000018	          0.06449322	          0.01000003	          0.13298448	          0.01000050	          0.01000001	          0.05628718	          0.05951573	          0.16593702	          0.03474528	          0.03922969	          0.01000019	          0.15282986	          0.08601631	          0.04132363	          0.03883074	          0.07751703	          0.01999393	          0.01000022	          0.22173961	          0.01000031	          0.01000031	          0.28378900	
